<svg xmlns="http://www.w3.org/2000/svg" viewBox="0 0 10240 10240" role="img" aria-label="RESTRO logo">
  <g fill="#3d1f78">
    <path d="M6595 8610 l-620 -620 615 -618 c338 -340 622 -619 630 -620 8 -1 293 276 633 616 l617 617 -623 623 c-342 342 -624 622 -627 622 -3 0 -284 -279 -625 -620z" />
    <path d="M5180 7195 l-625 -625 620 -620 c341 -341 624 -620 630 -620 6 0 289 279 630 620 l620 620 -625 625 -625 625 -625 -625z" />
    <path d="M8018 7195 c-340 -339 -618 -619 -618 -623 0 -4 276 -283 614 -621 403 -403 619 -612 630 -610 14 3 294 280 1076 1064 l165 165 -620 620 c-341 341 -622 620 -625 620 -3 0 -283 -277 -622 -615z" />
    <path d="M3767 5782 c-339 -339 -617 -622 -617 -627 0 -16 1224 -1235 1240 -1235 16 0 1240 1219 1240 1235 0 10 -1230 1245 -1240 1245 -3 0 -283 -278 -623 -618z" />
    <path d="M5175 4359 l-619 -620 615 -615 c404 -404 621 -614 634 -614 13 0 230 210 635 615 l615 615 -620 620 c-341 341 -625 620 -630 620 -6 0 -290 -279 -630 -621z" />
    <path d="M6600 2945 l-625 -625 615 -615 c338 -338 622 -615 630 -615 14 0 1231 1209 1238 1230 2 5 -275 289 -615 630 l-618 621 -625 -626z" />
  </g>
  <g fill="#7a49e6">
    <path d="M3758 8606 l-618 -621 613 -613 c459 -459 618 -612 635 -612 18 0 166 142 589 563 310 309 585 586 610 615 l46 54 -619 619 c-340 340 -623 618 -629 617 -5 0 -288 -281 -627 -622z" />
    <path d="M2350 7195 l-625 -625 620 -620 c341 -341 624 -620 630 -620 14 0 1235 1224 1235 1238 0 6 -278 291 -617 632 l-618 621 -625 -626z" />
    <path d="M932 5777 l-622 -622 618 -618 c339 -339 624 -617 633 -617 8 0 291 277 628 616 l613 615 -389 392 c-214 216 -492 497 -617 625 -126 127 -232 232 -235 232 -3 0 -286 -280 -629 -623z" />
    <path d="M2345 4360 l-620 -620 620 -620 c341 -341 624 -620 630 -620 6 0 288 278 627 618 l617 617 -621 623 c-341 342 -624 622 -627 622 -3 0 -285 -279 -626 -620z" />
    <path d="M3767 2951 c-339 -341 -617 -624 -617 -628 0 -5 279 -287 620 -628 l620 -620 623 623 622 622 -625 625 -626 626 -617 -620z" />
  </g>
</svg>
